<svg width="160" height="36" viewBox="0 0 160 36" fill="none" xmlns="http://www.w3.org/2000/svg">
<ellipse cx="18" cy="18.3673" rx="18" ry="17.6327" fill="#DDDDDD"/>
<path d="M29.6709 13.5636H6.32914C0.890288 13.5636 0.890288 21.4757 6.32914 21.4757H6.66906V27.0819C6.66906 28.4157 7.64353 29.3878 8.98058 29.3878H27.0194C28.3565 29.3878 29.3309 28.4157 29.3309 27.0819V21.4757H29.6709C35.1097 21.4757 35.1097 13.5636 29.6709 13.5636ZM6.32914 19.2151C3.72302 19.2151 3.72302 15.8242 6.32914 15.8242H6.66906V19.2151H6.32914ZM29.6709 19.2151H29.3309V15.8242H29.6709C32.277 15.8242 32.277 19.2151 29.6709 19.2151ZM22.2378 1.9595e-06C19.7676 4.56641 24.7079 6.73658 22.2378 11.303H24.7079C27.1781 6.73658 22.2378 4.56641 24.7079 1.9595e-06H22.2378ZM11.3374 1.9595e-06C8.8446 4.56641 13.8076 6.73658 11.3374 11.303H13.8076C16.2777 6.73658 11.3374 4.56641 13.8076 1.9595e-06H11.3374ZM16.7989 1.9595e-06C14.3288 4.56641 19.2691 6.73658 16.7989 11.303H19.2691C21.7392 6.73658 16.7989 4.56641 19.2691 1.9595e-06H16.7989Z" fill="#0C0C10"/>
<path d="M51.872 20.786C51.872 21.314 51.9673 21.7613 52.158 22.128C52.3487 22.4947 52.598 22.7953 52.906 23.03C53.2287 23.25 53.6027 23.4187 54.028 23.536C54.4533 23.6387 54.8933 23.69 55.348 23.69C55.656 23.69 55.986 23.668 56.338 23.624C56.69 23.5653 57.02 23.4627 57.328 23.316C57.636 23.1693 57.8927 22.9713 58.098 22.722C58.3033 22.458 58.406 22.128 58.406 21.732C58.406 21.3067 58.2667 20.962 57.988 20.698C57.724 20.434 57.372 20.214 56.932 20.038C56.492 19.862 55.9933 19.708 55.436 19.576C54.8787 19.444 54.314 19.2973 53.742 19.136C53.1553 18.9893 52.5833 18.8133 52.026 18.608C51.4687 18.388 50.97 18.1093 50.53 17.772C50.09 17.4347 49.7307 17.0167 49.452 16.518C49.188 16.0047 49.056 15.3887 49.056 14.67C49.056 13.8633 49.2247 13.1667 49.562 12.58C49.914 11.9787 50.3687 11.48 50.926 11.084C51.4833 10.688 52.114 10.3947 52.818 10.204C53.522 10.0133 54.226 9.918 54.93 9.918C55.7513 9.918 56.536 10.0133 57.284 10.204C58.0467 10.38 58.7213 10.6733 59.308 11.084C59.8947 11.4947 60.3567 12.0227 60.694 12.668C61.046 13.2987 61.222 14.0687 61.222 14.978H57.878C57.8487 14.5087 57.746 14.12 57.57 13.812C57.4087 13.504 57.1887 13.262 56.91 13.086C56.6313 12.91 56.3087 12.7853 55.942 12.712C55.59 12.6387 55.2013 12.602 54.776 12.602C54.4973 12.602 54.2187 12.6313 53.94 12.69C53.6613 12.7487 53.4047 12.8513 53.17 12.998C52.95 13.1447 52.7667 13.328 52.62 13.548C52.4733 13.768 52.4 14.0467 52.4 14.384C52.4 14.692 52.4587 14.9413 52.576 15.132C52.6933 15.3227 52.9207 15.4987 53.258 15.66C53.61 15.8213 54.0867 15.9827 54.688 16.144C55.304 16.3053 56.1033 16.5107 57.086 16.76C57.3793 16.8187 57.7827 16.9287 58.296 17.09C58.824 17.2367 59.3447 17.4787 59.858 17.816C60.3713 18.1533 60.8113 18.608 61.178 19.18C61.5593 19.7373 61.75 20.456 61.75 21.336C61.75 22.0547 61.6107 22.722 61.332 23.338C61.0533 23.954 60.6353 24.4893 60.078 24.944C59.5353 25.384 58.8533 25.7287 58.032 25.978C57.2253 26.2273 56.2867 26.352 55.216 26.352C54.3507 26.352 53.5073 26.242 52.686 26.022C51.8793 25.8167 51.1607 25.4867 50.53 25.032C49.914 24.5773 49.4227 23.998 49.056 23.294C48.6893 22.59 48.5133 21.754 48.528 20.786H51.872ZM67.9411 13.196H63.2331V10.292H76.1031V13.196H71.3951V26H67.9411V13.196ZM78.5743 10.292H90.3223V13.196H82.0283V16.562H89.6403V19.246H82.0283V23.096H90.4983V26H78.5743V10.292ZM97.46 19.928H101.53L99.55 14.164H99.506L97.46 19.928ZM97.79 10.292H101.332L107.206 26H103.62L102.432 22.502H96.558L95.326 26H91.85L97.79 10.292ZM109.22 10.292H114.082L117.756 21.094H117.8L121.277 10.292H126.139V26H122.905V14.868H122.86L119.01 26H116.348L112.498 14.978H112.454V26H109.22V10.292ZM129.839 10.292H141.587V13.196H133.293V16.562H140.905V19.246H133.293V23.096H141.763V26H129.839V10.292ZM148.219 17.398H152.003C152.795 17.398 153.389 17.222 153.785 16.87C154.181 16.518 154.379 15.946 154.379 15.154C154.379 14.3913 154.181 13.8413 153.785 13.504C153.389 13.152 152.795 12.976 152.003 12.976H148.219V17.398ZM144.765 10.292H153.235C153.939 10.292 154.57 10.4093 155.127 10.644C155.699 10.864 156.183 11.172 156.579 11.568C156.99 11.964 157.298 12.426 157.503 12.954C157.723 13.4673 157.833 14.0247 157.833 14.626C157.833 15.55 157.635 16.3493 157.239 17.024C156.858 17.6987 156.227 18.212 155.347 18.564V18.608C155.772 18.7253 156.124 18.9087 156.403 19.158C156.682 19.3927 156.909 19.6787 157.085 20.016C157.261 20.3387 157.386 20.698 157.459 21.094C157.547 21.49 157.606 21.886 157.635 22.282C157.65 22.5313 157.664 22.8247 157.679 23.162C157.694 23.4993 157.716 23.844 157.745 24.196C157.789 24.548 157.848 24.8853 157.921 25.208C158.009 25.516 158.134 25.78 158.295 26H154.841C154.65 25.5013 154.533 24.9073 154.489 24.218C154.445 23.5287 154.379 22.8687 154.291 22.238C154.174 21.4167 153.924 20.8153 153.543 20.434C153.162 20.0527 152.538 19.862 151.673 19.862H148.219V26H144.765V10.292Z" fill="#DDDDDD"/>
</svg>
