<svg width="30" height="29" viewBox="0 0 30 29" fill="none" xmlns="http://www.w3.org/2000/svg">
<g clip-path="url(#clip0_99_14)">
<path d="M24.4955 0.115892C24.41 0.954539 23.7865 4.45717 21.9869 7.78877C21.9782 7.8018 21.9663 7.81239 21.9523 7.81953C21.9384 7.82667 21.9229 7.83013 21.9072 7.82958C21.8915 7.82903 21.8763 7.82448 21.8629 7.81637C21.8494 7.80827 21.8383 7.79687 21.8306 7.78325C21.4627 7.02553 19.5445 3.68382 14.5393 3.65347C8.89316 3.61853 6.13077 8.00027 6.13077 8.00027C6.13077 8.00027 3.97439 11.0284 3.05114 16.7261C2.12789 22.4237 0.971994 23.9906 0.971994 23.9906L0.0358736 25.4721C0.0180752 25.5004 0.00655525 25.5321 0.00209201 25.5653C-0.00237123 25.5984 0.000326169 25.6321 0.010002 25.6641C0.0196779 25.6961 0.0361068 25.7256 0.058179 25.7507C0.0802512 25.7758 0.107453 25.7959 0.137946 25.8096C1.33338 26.3438 6.82137 28.6032 14.086 28.6032C19.0332 28.6032 20.5229 27.9062 20.9138 27.6331C20.924 27.6264 20.9317 27.6165 20.9358 27.6051C20.9399 27.5936 20.9402 27.5811 20.9365 27.5694C20.9329 27.5578 20.9256 27.5476 20.9157 27.5405C20.9057 27.5334 20.8938 27.5298 20.8816 27.5301C19.9114 27.6367 16.1734 27.0464 16.1734 23.484C16.1734 20.2848 18.4999 18.7372 20.9377 18.6259C22.0926 18.5726 24.5562 19.0618 25.3258 21.3202C25.9695 23.2201 25.1134 24.9203 24.8247 25.4123C24.8186 25.4226 24.8158 25.4346 24.8169 25.4465C24.8179 25.4584 24.8227 25.4697 24.8305 25.4788C24.8384 25.4878 24.8489 25.4942 24.8605 25.4969C24.8722 25.4997 24.8844 25.4987 24.8955 25.4941C25.7709 25.141 29.8345 23.1244 29.9963 16.8548C30.1389 11.3457 25.6155 8.98145 23.4858 8.88122C23.4688 8.87987 23.4523 8.87453 23.4378 8.86564C23.4232 8.85675 23.411 8.84456 23.402 8.83005C23.3931 8.81554 23.3877 8.79912 23.3862 8.78213C23.3848 8.76514 23.3874 8.74805 23.3938 8.73225C23.9667 7.26646 27.5319 3.46588 28.1609 2.80471C28.1866 2.77784 28.2009 2.74211 28.2009 2.70494C28.2009 2.66777 28.1866 2.63203 28.1609 2.60516C27.1378 1.57429 25.9669 0.701547 24.6867 0.0156593C24.668 0.00562341 24.647 0.000331715 24.6257 0.000245218C24.6044 0.000158722 24.5834 0.00528005 24.5646 0.015163C24.5457 0.0250459 24.5296 0.0393907 24.5175 0.0569474C24.5055 0.074504 24.4979 0.09474 24.4955 0.115892Z" fill="#DFBFAD"/>
</g>
<defs>
<clipPath id="clip0_99_14">
<rect width="30" height="28.605" fill="white"/>
</clipPath>
</defs>
</svg>
